<svg xmlns="http://www.w3.org/2000/svg" viewBox="-62 -62 126.965 124" width="126.965" height="124"><title>ReCre Studio — rozet-kiremit</title><circle cx="0" cy="0" r="62" fill="#D9482B"/><path transform="matrix(1 0 -0 1 0 0)" d="M-48 36 C-24 38 -14 16 -26 8 C-38 0 -46 26 -22 24 C-4 22 2 10 8 2" fill="none" stroke="#F7F1E6" stroke-width="2.2" stroke-dasharray="4.5 5.5" stroke-linecap="round"/><g transform="matrix(0.583 -0.31 0.31 0.583 30 -18)"><polygon fill="#E6D8C2" points="60,0 -36,2 -8,6"/><polygon fill="#F7F1E6" points="60,0 -40,-24 -8,6"/><polygon fill="#D2BFA3" points="60,0 -8,6 -20,26"/><polygon fill="#B9A284" points="-8,6 -20,26 -13,9"/></g></svg>
